<svg width="32" height="32" viewBox="0 0 32 32" fill="none" xmlns="http://www.w3.org/2000/svg">
<path fill-rule="evenodd" clip-rule="evenodd" d="M18.1045 2.48259C16.7797 1.79138 15.2203 1.79138 13.8955 2.48259L4.4837 7.39304C2.88942 8.22483 1.88235 9.92513 1.88235 11.7851V20.2149C1.88235 22.0749 2.88942 23.7752 4.4837 24.607L13.8955 29.5174C15.2203 30.2086 16.7797 30.2086 18.1045 29.5174L27.5163 24.607C29.1106 23.7752 30.1176 22.0749 30.1176 20.2149V11.7851C30.1176 9.92513 29.1106 8.22483 27.5163 7.39304L18.1045 2.48259ZM13.0537 0.725774C14.9084 -0.241924 17.0916 -0.241925 18.9463 0.725773L28.3581 5.63622C30.5901 6.80073 32 9.18116 32 11.7851V20.2149C32 22.8188 30.5901 25.1993 28.3581 26.3638L18.9463 31.2742C17.0916 32.2419 14.9084 32.2419 13.0537 31.2742L3.64189 26.3638C1.4099 25.1993 0 22.8188 0 20.2149V11.7851C0 9.18116 1.4099 6.80073 3.64189 5.63622L13.0537 0.725774Z" fill="black"/>
<path d="M8.07314 9.33274L15.1582 5.63622C15.6881 5.35974 16.3119 5.35973 16.8418 5.63622L23.9269 9.33274C25.3142 10.0566 25.3142 12.1225 23.9269 12.8464L16.8418 16.5429C16.3119 16.8194 15.6881 16.8194 15.1582 16.5429L8.07314 12.8464C6.68575 12.1225 6.68575 10.0566 8.07314 9.33274Z" fill="black"/>
</svg>
